<svg width="520" height="414" viewBox="0 0 520 414" fill="none" xmlns="http://www.w3.org/2000/svg">
<rect y="0.48465" width="520" height="413.515" fill="#C4C4C4"/>
<g clip-path="url(#clip0)">
<path d="M371.705 90.9966H188.255C185.747 90.9966 183.714 93.0295 183.714 95.5374V115.517H168.275C165.767 115.517 163.734 117.551 163.734 120.058V144.579H148.295C145.787 144.579 143.754 146.612 143.754 149.119V298.967C143.754 312.488 154.754 323.488 168.275 323.488H351.725C365.246 323.488 376.246 312.488 376.246 298.967V95.5374C376.246 93.0295 374.212 90.9966 371.705 90.9966ZM367.164 298.967C367.164 307.481 360.238 314.406 351.725 314.406H187.306C190.735 310.188 192.795 304.815 192.795 298.967V237.667C192.795 235.16 190.762 233.127 188.255 233.127C185.747 233.127 183.714 235.16 183.714 237.667V298.967C183.714 307.481 176.788 314.406 168.275 314.406C159.762 314.406 152.836 307.481 152.836 298.967V153.66H163.734V294.427C163.734 296.934 165.767 298.967 168.275 298.967C170.782 298.967 172.816 296.934 172.816 294.427V124.599H183.714V196.8C183.714 199.308 185.747 201.341 188.255 201.341C190.762 201.341 192.795 199.308 192.795 196.8V100.078H367.164V298.967Z" fill="black"/>
<path d="M210.051 162.742H349.909C352.416 162.742 354.45 160.709 354.45 158.201V125.507C354.45 123 352.416 120.966 349.909 120.966H210.051C207.543 120.966 205.51 123 205.51 125.507V158.201C205.51 160.709 207.543 162.742 210.051 162.742ZM214.592 130.048H345.368V153.66H214.592V130.048Z" fill="black"/>
<path d="M210.051 271.722H279.98C282.487 271.722 284.521 269.689 284.521 267.182V179.997C284.521 177.489 282.487 175.456 279.98 175.456H210.051C207.543 175.456 205.51 177.489 205.51 179.997V267.182C205.51 269.689 207.543 271.722 210.051 271.722ZM214.592 184.538H275.439V262.641H214.592V184.538Z" fill="black"/>
<path d="M349.909 175.456H301.776C299.268 175.456 297.235 177.489 297.235 179.997C297.235 182.505 299.268 184.538 301.776 184.538H349.909C352.416 184.538 354.45 182.505 354.45 179.997C354.45 177.489 352.416 175.456 349.909 175.456Z" fill="black"/>
<path d="M349.909 197.252H301.776C299.268 197.252 297.235 199.285 297.235 201.793C297.235 204.301 299.268 206.334 301.776 206.334H349.909C352.416 206.334 354.45 204.301 354.45 201.793C354.45 199.285 352.416 197.252 349.909 197.252Z" fill="black"/>
<path d="M349.909 219.049H301.776C299.268 219.049 297.235 221.082 297.235 223.589C297.235 226.097 299.268 228.13 301.776 228.13H349.909C352.416 228.13 354.45 226.097 354.45 223.589C354.45 221.082 352.416 219.049 349.909 219.049Z" fill="black"/>
<path d="M349.909 240.845H301.776C299.268 240.845 297.235 242.878 297.235 245.385C297.235 247.893 299.268 249.926 301.776 249.926H349.909C352.416 249.926 354.45 247.893 354.45 245.385C354.45 242.878 352.416 240.845 349.909 240.845Z" fill="black"/>
<path d="M349.909 262.641H301.776C299.268 262.641 297.235 264.674 297.235 267.182C297.235 269.689 299.268 271.722 301.776 271.722H349.909C352.416 271.722 354.45 269.689 354.45 267.182C354.45 264.674 352.416 262.641 349.909 262.641Z" fill="black"/>
<path d="M210.051 293.518H349.909C352.416 293.518 354.45 291.485 354.45 288.978C354.45 286.47 352.416 284.437 349.909 284.437H210.051C207.543 284.437 205.51 286.47 205.51 288.978C205.51 291.485 207.543 293.518 210.051 293.518Z" fill="black"/>
<path d="M188.482 212.691C187.287 212.691 186.116 213.177 185.271 214.022C184.427 214.866 183.941 216.038 183.941 217.232C183.941 218.431 184.426 219.598 185.271 220.442C186.116 221.291 187.287 221.773 188.482 221.773C189.676 221.773 190.847 221.292 191.692 220.442C192.536 219.598 193.022 218.426 193.022 217.232C193.022 216.038 192.537 214.866 191.692 214.022C190.847 213.177 189.676 212.691 188.482 212.691Z" fill="black"/>
</g>
<defs>
<clipPath id="clip0">
<rect width="232.491" height="232.491" fill="white" transform="translate(143.754 90.9966)"/>
</clipPath>
</defs>
</svg>
