<svg width="256" height="256" viewBox="0 0 256 256" fill="none" xmlns="http://www.w3.org/2000/svg">
<g clip-path="url(#clip0)">
<path d="M128 7.5C61.45 7.5 7.5 61.4495 7.5 128H248.5C248.5 61.4495 194.55 7.5 128 7.5Z" fill="#99DAFF"/>
<path d="M248.5 128C248.5 61.4495 194.55 7.5 128 7.5V128H248.5Z" fill="#53ACF5"/>
<path d="M218.51 37.49C194.333 13.3145 162.19 0 128 0C93.81 0 61.6665 13.3145 37.49 37.49C13.3145 61.6665 0 93.81 0 128H256C256 93.81 242.685 61.6665 218.51 37.49V37.49ZM60.3655 120.5H15.246C16.317 104.245 20.846 88.921 28.094 75.25H66.0945C62.789 89.376 60.8355 104.672 60.3655 120.5ZM37.627 60.25C50.7625 42.7725 68.839 29.2135 89.766 21.6655C85.777 26.7565 82.0625 32.6915 78.688 39.4395C75.4805 45.8545 72.6655 52.832 70.259 60.25H37.627ZM120.5 120.5H75.3715C75.873 104.509 77.974 89.1745 81.521 75.25H120.5V120.5ZM120.5 60.25H86.103C87.8975 55.2785 89.8985 50.56 92.105 46.1475C100.085 30.1875 110.136 19.7205 120.5 16.262V60.25ZM135.5 16.262C145.864 19.7205 155.915 30.1875 163.895 46.1475C166.101 50.5595 168.103 55.2785 169.897 60.25H135.5V16.262ZM135.5 120.5V75.25H174.479C178.026 89.1745 180.127 104.509 180.628 120.5H135.5ZM177.311 39.4395C173.937 32.6915 170.223 26.7565 166.234 21.6655C187.161 29.2135 205.238 42.7725 218.373 60.25H185.74C183.334 52.832 180.519 45.8545 177.311 39.4395ZM189.906 75.25H227.906C235.154 88.921 239.683 104.245 240.754 120.5H195.635C195.165 104.672 193.211 89.376 189.906 75.25Z" fill="#4361EE"/>
<path d="M128 0V128H256C256 93.81 242.685 61.6665 218.51 37.49C194.333 13.3145 162.19 0 128 0V0ZM135.5 16.262C145.864 19.7205 155.915 30.1875 163.895 46.1475C166.101 50.5595 168.102 55.2785 169.897 60.25H135.5V16.262ZM135.5 120.5V75.25H174.479C178.026 89.1745 180.127 104.509 180.628 120.5H135.5ZM177.311 39.4395C173.937 32.6915 170.223 26.7565 166.234 21.6655C187.161 29.2135 205.237 42.7725 218.373 60.25H185.74C183.334 52.832 180.519 45.8545 177.311 39.4395ZM240.754 120.5H195.634C195.164 104.672 193.211 89.376 189.905 75.25H227.906C235.154 88.921 239.683 104.245 240.754 120.5V120.5Z" fill="#424FDD"/>
<path d="M248.5 256H7.5C3.358 256 0 252.642 0 248.5V128C0 123.858 3.358 120.5 7.5 120.5H248.5C252.642 120.5 256 123.858 256 128V248.5C256 252.642 252.642 256 248.5 256Z" fill="#EBFAFF"/>
<path d="M248.5 120.5H128V256H248.5C252.642 256 256 252.642 256 248.5V128C256 123.858 252.642 120.5 248.5 120.5Z" fill="#C3E6FF"/>
<path d="M15 135.5H241V241H15V135.5Z" fill="#FFEA98"/>
<path d="M128 135.5H241V241H128V135.5Z" fill="#FFB454"/>
<path d="M107.712 153.8V221H89.088L63.552 190.472V221H41.472V153.8H60.096L85.632 184.328V153.8H107.712Z" fill="#7209B7"/>
<path d="M203.264 209.288H177.728L173.216 221H150.176L179.552 153.8H201.824L231.2 221H207.776L203.264 209.288ZM197.024 192.968L190.496 176.072L183.968 192.968H197.024Z" fill="#453D81"/>
</g>
<defs>
<clipPath id="clip0">
<rect width="256" height="256" fill="white"/>
</clipPath>
</defs>
</svg>
