<svg width="645" height="256" viewBox="0 0 645 256" fill="none" xmlns="http://www.w3.org/2000/svg">
<g clip-path="url(#clip0)">
<path d="M128 7.5C61.45 7.5 7.5 61.4495 7.5 128H248.5C248.5 61.4495 194.55 7.5 128 7.5Z" fill="#99DAFF"/>
<path d="M248.5 128C248.5 61.4495 194.55 7.5 128 7.5V128H248.5Z" fill="#53ACF5"/>
<path d="M218.51 37.49C194.333 13.3145 162.19 0 128 0C93.81 0 61.6665 13.3145 37.49 37.49C13.3145 61.6665 0 93.81 0 128H256C256 93.81 242.685 61.6665 218.51 37.49V37.49ZM60.3655 120.5H15.246C16.317 104.245 20.846 88.921 28.094 75.25H66.0945C62.789 89.376 60.8355 104.672 60.3655 120.5ZM37.627 60.25C50.7625 42.7725 68.839 29.2135 89.766 21.6655C85.777 26.7565 82.0625 32.6915 78.688 39.4395C75.4805 45.8545 72.6655 52.832 70.259 60.25H37.627ZM120.5 120.5H75.3715C75.873 104.509 77.974 89.1745 81.521 75.25H120.5V120.5ZM120.5 60.25H86.103C87.8975 55.2785 89.8985 50.56 92.105 46.1475C100.085 30.1875 110.136 19.7205 120.5 16.262V60.25ZM135.5 16.262C145.864 19.7205 155.915 30.1875 163.895 46.1475C166.101 50.5595 168.103 55.2785 169.897 60.25H135.5V16.262ZM135.5 120.5V75.25H174.479C178.026 89.1745 180.127 104.509 180.628 120.5H135.5ZM177.311 39.4395C173.937 32.6915 170.223 26.7565 166.234 21.6655C187.161 29.2135 205.238 42.7725 218.373 60.25H185.74C183.334 52.832 180.519 45.8545 177.311 39.4395ZM189.906 75.25H227.906C235.154 88.921 239.683 104.245 240.754 120.5H195.635C195.165 104.672 193.211 89.376 189.906 75.25Z" fill="#4361EE"/>
<path d="M128 0V128H256C256 93.81 242.685 61.6665 218.51 37.49C194.333 13.3145 162.19 0 128 0V0ZM135.5 16.262C145.864 19.7205 155.915 30.1875 163.895 46.1475C166.101 50.5595 168.102 55.2785 169.897 60.25H135.5V16.262ZM135.5 120.5V75.25H174.479C178.026 89.1745 180.127 104.509 180.628 120.5H135.5ZM177.311 39.4395C173.937 32.6915 170.223 26.7565 166.234 21.6655C187.161 29.2135 205.237 42.7725 218.373 60.25H185.74C183.334 52.832 180.519 45.8545 177.311 39.4395ZM240.754 120.5H195.634C195.164 104.672 193.211 89.376 189.905 75.25H227.906C235.154 88.921 239.683 104.245 240.754 120.5V120.5Z" fill="#424FDD"/>
<path d="M248.5 256H7.5C3.358 256 0 252.642 0 248.5V128C0 123.858 3.358 120.5 7.5 120.5H248.5C252.642 120.5 256 123.858 256 128V248.5C256 252.642 252.642 256 248.5 256Z" fill="#EBFAFF"/>
<path d="M248.5 120.5H128V256H248.5C252.642 256 256 252.642 256 248.5V128C256 123.858 252.642 120.5 248.5 120.5Z" fill="#C3E6FF"/>
<path d="M15 135.5H241V241H15V135.5Z" fill="#FFEA98"/>
<path d="M128 135.5H241V241H128V135.5Z" fill="#FFB454"/>
<path d="M107.712 153.8V221H89.088L63.552 190.472V221H41.472V153.8H60.096L85.632 184.328V153.8H107.712Z" fill="#7209B7"/>
<path d="M203.264 209.288H177.728L173.216 221H150.176L179.552 153.8H201.824L231.2 221H207.776L203.264 209.288ZM197.024 192.968L190.496 176.072L183.968 192.968H197.024Z" fill="#453D81"/>
</g>
<path d="M364.712 36.8V104H346.088L320.552 73.472V104H298.472V36.8H317.096L342.632 67.328V36.8H364.712ZM430.828 77.696C430.828 78.016 430.732 79.712 430.54 82.784H394.06C394.828 84.768 396.108 86.304 397.9 87.392C399.692 88.416 401.932 88.928 404.62 88.928C406.924 88.928 408.844 88.64 410.38 88.064C411.98 87.488 413.708 86.496 415.564 85.088L426.892 96.512C421.772 102.144 414.124 104.96 403.948 104.96C397.612 104.96 392.044 103.808 387.244 101.504C382.444 99.136 378.732 95.872 376.108 91.712C373.484 87.552 372.172 82.88 372.172 77.696C372.172 72.448 373.452 67.776 376.012 63.68C378.636 59.52 382.188 56.288 386.668 53.984C391.212 51.68 396.3 50.528 401.932 50.528C407.244 50.528 412.076 51.584 416.428 53.696C420.844 55.808 424.332 58.912 426.892 63.008C429.516 67.104 430.828 72 430.828 77.696ZM402.124 65.312C399.884 65.312 398.028 65.92 396.556 67.136C395.084 68.352 394.124 70.08 393.676 72.32H410.572C410.124 70.144 409.164 68.448 407.692 67.232C406.22 65.952 404.364 65.312 402.124 65.312ZM469.389 104L462.189 92.768L454.125 104H430.605L450.477 77.984L431.181 51.488H455.661L463.149 62.624L471.021 51.488H493.773L474.477 77.024L494.253 104H469.389ZM536.832 102.176C533.568 104.032 529.12 104.96 523.488 104.96C516.128 104.96 510.464 103.2 506.496 99.68C502.528 96.096 500.544 90.752 500.544 83.648V70.208H493.344V54.368H500.544V39.68H522.24V54.368H532.992V70.208H522.24V83.456C522.24 85.056 522.656 86.304 523.488 87.2C524.32 88.096 525.408 88.544 526.752 88.544C528.608 88.544 530.24 88.064 531.648 87.104L536.832 102.176ZM344.264 209.288H318.728L314.216 221H291.176L320.552 153.8H342.824L372.2 221H348.776L344.264 209.288ZM338.024 192.968L331.496 176.072L324.968 192.968H338.024ZM395.784 174.152C399.624 169.736 405.288 167.528 412.776 167.528V186.728C411.048 186.472 409.448 186.344 407.976 186.344C400.552 186.344 396.84 190.12 396.84 197.672V221H375.144V168.488H395.784V174.152ZM459.019 219.176C455.755 221.032 451.307 221.96 445.675 221.96C438.315 221.96 432.651 220.2 428.683 216.68C424.715 213.096 422.731 207.752 422.731 200.648V187.208H415.531V171.368H422.731V156.68H444.427V171.368H455.179V187.208H444.427V200.456C444.427 202.056 444.843 203.304 445.675 204.2C446.507 205.096 447.595 205.544 448.939 205.544C450.795 205.544 452.427 205.064 453.835 204.104L459.019 219.176ZM464.488 168.488H486.184V221H464.488V168.488ZM475.336 164.264C471.432 164.264 468.264 163.24 465.832 161.192C463.464 159.08 462.28 156.424 462.28 153.224C462.28 150.024 463.464 147.4 465.832 145.352C468.264 143.24 471.432 142.184 475.336 142.184C479.304 142.184 482.472 143.176 484.84 145.16C487.208 147.144 488.392 149.704 488.392 152.84C488.392 156.168 487.208 158.92 484.84 161.096C482.472 163.208 479.304 164.264 475.336 164.264ZM524.024 221.96C518.072 221.96 512.728 220.808 507.992 218.504C503.32 216.2 499.64 212.968 496.952 208.808C494.328 204.648 493.016 199.944 493.016 194.696C493.016 189.448 494.328 184.776 496.952 180.68C499.64 176.52 503.32 173.288 507.992 170.984C512.728 168.68 518.072 167.528 524.024 167.528C530.424 167.528 535.896 168.904 540.44 171.656C544.984 174.408 548.12 178.216 549.848 183.08L533.048 191.336C531 186.728 527.96 184.424 523.928 184.424C521.368 184.424 519.224 185.32 517.496 187.112C515.832 188.904 515 191.432 515 194.696C515 198.024 515.832 200.584 517.496 202.376C519.224 204.168 521.368 205.064 523.928 205.064C527.96 205.064 531 202.76 533.048 198.152L549.848 206.408C548.12 211.272 544.984 215.08 540.44 217.832C535.896 220.584 530.424 221.96 524.024 221.96ZM554.863 149.768H576.559V221H554.863V149.768ZM642.047 194.696C642.047 195.016 641.951 196.712 641.759 199.784H605.279C606.047 201.768 607.327 203.304 609.119 204.392C610.911 205.416 613.151 205.928 615.839 205.928C618.143 205.928 620.063 205.64 621.599 205.064C623.199 204.488 624.927 203.496 626.783 202.088L638.111 213.512C632.991 219.144 625.343 221.96 615.167 221.96C608.831 221.96 603.263 220.808 598.463 218.504C593.663 216.136 589.951 212.872 587.327 208.712C584.703 204.552 583.391 199.88 583.391 194.696C583.391 189.448 584.671 184.776 587.231 180.68C589.855 176.52 593.407 173.288 597.887 170.984C602.431 168.68 607.519 167.528 613.151 167.528C618.463 167.528 623.295 168.584 627.647 170.696C632.063 172.808 635.551 175.912 638.111 180.008C640.735 184.104 642.047 189 642.047 194.696ZM613.343 182.312C611.103 182.312 609.247 182.92 607.775 184.136C606.303 185.352 605.343 187.08 604.895 189.32H621.791C621.343 187.144 620.383 185.448 618.911 184.232C617.439 182.952 615.583 182.312 613.343 182.312Z" fill="#4361EE"/>
<defs>
<clipPath id="clip0">
<rect width="256" height="256" fill="white"/>
</clipPath>
</defs>
</svg>
