<svg width="131" height="37" viewBox="0 0 131 37" fill="none" xmlns="http://www.w3.org/2000/svg">
<path d="M0.546875 23.1328C0.546875 19.1797 1.42969 16.0312 3.19531 13.6875C4.97656 11.3438 7.40625 10.1719 10.4844 10.1719C12.9531 10.1719 14.9922 11.0938 16.6016 12.9375V0H23.3984V36H17.2812L16.9531 33.3047C15.2656 35.4141 13.0938 36.4688 10.4375 36.4688C7.45312 36.4688 5.05469 35.2969 3.24219 32.9531C1.44531 30.5938 0.546875 27.3203 0.546875 23.1328ZM7.32031 23.625C7.32031 26 7.73438 27.8203 8.5625 29.0859C9.39062 30.3516 10.5938 30.9844 12.1719 30.9844C14.2656 30.9844 15.7422 30.1016 16.6016 28.3359V18.3281C15.7578 16.5625 14.2969 15.6797 12.2188 15.6797C8.95312 15.6797 7.32031 18.3281 7.32031 23.625ZM27.5938 23.0859C27.5938 20.5703 28.0781 18.3281 29.0469 16.3594C30.0156 14.3906 31.4062 12.8672 33.2188 11.7891C35.0469 10.7109 37.1641 10.1719 39.5703 10.1719C42.9922 10.1719 45.7812 11.2188 47.9375 13.3125C50.1094 15.4062 51.3203 18.25 51.5703 21.8438L51.6172 23.5781C51.6172 27.4688 50.5312 30.5938 48.3594 32.9531C46.1875 35.2969 43.2734 36.4688 39.6172 36.4688C35.9609 36.4688 33.0391 35.2969 30.8516 32.9531C28.6797 30.6094 27.5938 27.4219 27.5938 23.3906V23.0859ZM34.3672 23.5781C34.3672 25.9844 34.8203 27.8281 35.7266 29.1094C36.6328 30.375 37.9297 31.0078 39.6172 31.0078C41.2578 31.0078 42.5391 30.3828 43.4609 29.1328C44.3828 27.8672 44.8438 25.8516 44.8438 23.0859C44.8438 20.7266 44.3828 18.8984 43.4609 17.6016C42.5391 16.3047 41.2422 15.6562 39.5703 15.6562C37.9141 15.6562 36.6328 16.3047 35.7266 17.6016C34.8203 18.8828 34.3672 20.875 34.3672 23.5781ZM54.7344 23.0859C54.7344 20.5703 55.2188 18.3281 56.1875 16.3594C57.1562 14.3906 58.5469 12.8672 60.3594 11.7891C62.1875 10.7109 64.3047 10.1719 66.7109 10.1719C70.1328 10.1719 72.9219 11.2188 75.0781 13.3125C77.25 15.4062 78.4609 18.25 78.7109 21.8438L78.7578 23.5781C78.7578 27.4688 77.6719 30.5938 75.5 32.9531C73.3281 35.2969 70.4141 36.4688 66.7578 36.4688C63.1016 36.4688 60.1797 35.2969 57.9922 32.9531C55.8203 30.6094 54.7344 27.4219 54.7344 23.3906V23.0859ZM61.5078 23.5781C61.5078 25.9844 61.9609 27.8281 62.8672 29.1094C63.7734 30.375 65.0703 31.0078 66.7578 31.0078C68.3984 31.0078 69.6797 30.3828 70.6016 29.1328C71.5234 27.8672 71.9844 25.8516 71.9844 23.0859C71.9844 20.7266 71.5234 18.8984 70.6016 17.6016C69.6797 16.3047 68.3828 15.6562 66.7109 15.6562C65.0547 15.6562 63.7734 16.3047 62.8672 17.6016C61.9609 18.8828 61.5078 20.875 61.5078 23.5781ZM94.6016 36.4688C90.8828 36.4688 87.8516 35.3281 85.5078 33.0469C83.1797 30.7656 82.0156 27.7266 82.0156 23.9297V23.2734C82.0156 20.7266 82.5078 18.4531 83.4922 16.4531C84.4766 14.4375 85.8672 12.8906 87.6641 11.8125C89.4766 10.7188 91.5391 10.1719 93.8516 10.1719C97.3203 10.1719 100.047 11.2656 102.031 13.4531C104.031 15.6406 105.031 18.7422 105.031 22.7578V25.5234H88.8828C89.1016 27.1797 89.7578 28.5078 90.8516 29.5078C91.9609 30.5078 93.3594 31.0078 95.0469 31.0078C97.6562 31.0078 99.6953 30.0625 101.164 28.1719L104.492 31.8984C103.477 33.3359 102.102 34.4609 100.367 35.2734C98.6328 36.0703 96.7109 36.4688 94.6016 36.4688ZM93.8281 15.6562C92.4844 15.6562 91.3906 16.1094 90.5469 17.0156C89.7188 17.9219 89.1875 19.2188 88.9531 20.9062H98.375V20.3672C98.3438 18.8672 97.9375 17.7109 97.1562 16.8984C96.375 16.0703 95.2656 15.6562 93.8281 15.6562ZM120.57 36.4688C116.852 36.4688 113.82 35.3281 111.477 33.0469C109.148 30.7656 107.984 27.7266 107.984 23.9297V23.2734C107.984 20.7266 108.477 18.4531 109.461 16.4531C110.445 14.4375 111.836 12.8906 113.633 11.8125C115.445 10.7188 117.508 10.1719 119.82 10.1719C123.289 10.1719 126.016 11.2656 128 13.4531C130 15.6406 131 18.7422 131 22.7578V25.5234H114.852C115.07 27.1797 115.727 28.5078 116.82 29.5078C117.93 30.5078 119.328 31.0078 121.016 31.0078C123.625 31.0078 125.664 30.0625 127.133 28.1719L130.461 31.8984C129.445 33.3359 128.07 34.4609 126.336 35.2734C124.602 36.0703 122.68 36.4688 120.57 36.4688ZM119.797 15.6562C118.453 15.6562 117.359 16.1094 116.516 17.0156C115.688 17.9219 115.156 19.2188 114.922 20.9062H124.344V20.3672C124.312 18.8672 123.906 17.7109 123.125 16.8984C122.344 16.0703 121.234 15.6562 119.797 15.6562Z" fill="#13AA52"/>
</svg>
